<svg width="424" height="453" viewBox="0 0 424 453" fill="none" xmlns="http://www.w3.org/2000/svg">
<path d="M211.997 124.5L282.667 83V328.5L211.997 370V124.5Z" fill="#287ABD"/>
<path d="M212 370L141.326 328.5V83L212 124.5V370Z" fill="#4EA9E4"/>
<path d="M353.33 370L282.667 328.5V83L353.33 124.5V370Z" fill="#F7BA4B"/>
<path d="M70.6667 124.506V124.5V370L141.33 328.5V83L70.6667 124.5V124.506Z" fill="#F7BA4B"/>
<path d="M0 83V328.5L70.6667 370V124.5L0 83Z" fill="#4EA9E4"/>
<path d="M282.67 328.5L353.33 370L212.003 453L70.6699 370L141.327 328.5L211.997 370L282.67 328.5Z" fill="#F0AA3A"/>
<path d="M424 83V328.5L353.333 370V124.5L424 83Z" fill="#287ABD"/>
<path d="M282.667 83.001L211.995 124.5L141.327 83.001L70.6667 124.5L0 83L141.327 0L211.995 41.5L282.667 0L424 83L353.327 124.5L282.667 83.001Z" fill="#3490CD"/>
</svg>
