<svg width="35" height="35" viewBox="0 0 35 35" fill="none" xmlns="http://www.w3.org/2000/svg">
<rect x="2" y="6" width="31" height="29" rx="1" fill="#F6AA58"/>
<rect x="3.5" y="12.5" width="7" height="7" fill="white" stroke="#F6AA58"/>
<rect x="10.5" y="12.5" width="7" height="7" fill="white" stroke="#F6AA58"/>
<rect x="17.5" y="12.5" width="7" height="7" fill="white" stroke="#F6AA58"/>
<rect x="24.5" y="12.5" width="7" height="7" fill="white" stroke="#F6AA58"/>
<rect x="3.5" y="19.5" width="7" height="7" fill="white" stroke="#F6AA58"/>
<rect x="10.5" y="19.5" width="7" height="7" fill="white" stroke="#F6AA58"/>
<rect x="17.5" y="19.5" width="7" height="7" fill="white" stroke="#F6AA58"/>
<rect x="24.5" y="19.5" width="7" height="7" fill="white" stroke="#F6AA58"/>
<rect x="3.5" y="26.5" width="7" height="7" fill="white" stroke="#F6AA58"/>
<rect x="10.5" y="26.5" width="7" height="7" fill="white" stroke="#F6AA58"/>
<rect x="17.5" y="26.5" width="7" height="7" fill="white" stroke="#F6AA58"/>
<rect x="24.5" y="26.5" width="7" height="7" fill="white" stroke="#F6AA58"/>
<path d="M9 3.5C9 2.67157 9.67157 2 10.5 2C11.3284 2 12 2.67157 12 3.5V8.5C12 9.32843 11.3284 10 10.5 10C9.67157 10 9 9.32843 9 8.5V3.5Z" fill="white"/>
<path fill-rule="evenodd" clip-rule="evenodd" d="M13.5 3.5V8.5C13.5 10.1569 12.1569 11.5 10.5 11.5C8.84315 11.5 7.5 10.1569 7.5 8.5V3.5C7.5 1.84315 8.84315 0.5 10.5 0.5C12.1569 0.5 13.5 1.84315 13.5 3.5ZM10.5 2C9.67157 2 9 2.67157 9 3.5V8.5C9 9.32843 9.67157 10 10.5 10C11.3284 10 12 9.32843 12 8.5V3.5C12 2.67157 11.3284 2 10.5 2Z" fill="#F6AA58"/>
<path d="M23 3.5C23 2.67157 23.6716 2 24.5 2C25.3284 2 26 2.67157 26 3.5V8.5C26 9.32843 25.3284 10 24.5 10C23.6716 10 23 9.32843 23 8.5V3.5Z" fill="white"/>
<path fill-rule="evenodd" clip-rule="evenodd" d="M27.5 3.5V8.5C27.5 10.1569 26.1569 11.5 24.5 11.5C22.8431 11.5 21.5 10.1569 21.5 8.5V3.5C21.5 1.84315 22.8431 0.5 24.5 0.5C26.1569 0.5 27.5 1.84315 27.5 3.5ZM24.5 2C23.6716 2 23 2.67157 23 3.5V8.5C23 9.32843 23.6716 10 24.5 10C25.3284 10 26 9.32843 26 8.5V3.5C26 2.67157 25.3284 2 24.5 2Z" fill="#F6AA58"/>
</svg>
