<svg width="47" height="47" viewBox="0 0 47 47" fill="none" xmlns="http://www.w3.org/2000/svg">
<path fill-rule="evenodd" clip-rule="evenodd" d="M23.5 46C35.9264 46 46 35.9264 46 23.5C46 11.0736 35.9264 1 23.5 1C11.0736 1 1 11.0736 1 23.5C1 35.9264 11.0736 46 23.5 46Z" stroke="white" stroke-width="1.36154"/>
<path fill-rule="evenodd" clip-rule="evenodd" d="M28.9 20.7995H34.4285C34.8324 20.7995 35.1396 21.1621 35.0732 21.5605L34.391 25.6534C34.3385 25.9685 34.0658 26.1995 33.7464 26.1995H28.9V39.6995H23.5V26.1995H19.6535C19.2926 26.1995 19 25.9069 19 25.546V21.4531C19 21.0921 19.2926 20.7995 19.6535 20.7995H23.5V14.3564C23.5 11.9502 25.4507 9.99951 27.8569 9.99951H34.0822C34.2025 9.99951 34.3 10.097 34.3 10.2174V14.2817C34.3 14.402 34.2025 14.4995 34.0822 14.4995H31.0785C29.8753 14.4995 28.9 15.4748 28.9 16.678V20.7995Z" fill="white"/>
</svg>
