<svg width="47" height="47" viewBox="0 0 47 47" fill="none" xmlns="http://www.w3.org/2000/svg">
<path fill-rule="evenodd" clip-rule="evenodd" d="M23.5 46C35.9264 46 46 35.9264 46 23.5C46 11.0736 35.9264 1 23.5 1C11.0736 1 1 11.0736 1 23.5C1 35.9264 11.0736 46 23.5 46Z" stroke="white" stroke-width="1.36154"/>
<path fill-rule="evenodd" clip-rule="evenodd" d="M28.54 13.4204H18.46C15.6765 13.4204 13.42 15.6769 13.42 18.4604V28.5404C13.42 31.3239 15.6765 33.5804 18.46 33.5804H28.54C31.3235 33.5804 33.58 31.3239 33.58 28.5404V18.4604C33.58 15.6769 31.3235 13.4204 28.54 13.4204ZM18.46 10.9004C14.2848 10.9004 10.9 14.2851 10.9 18.4604V28.5404C10.9 32.7157 14.2848 36.1004 18.46 36.1004H28.54C32.7153 36.1004 36.1 32.7157 36.1 28.5404V18.4604C36.1 14.2851 32.7153 10.9004 28.54 10.9004H18.46ZM23.5 27.6997C25.8196 27.6997 27.7 25.8193 27.7 23.4997C27.7 21.1801 25.8196 19.2997 23.5 19.2997C21.1804 19.2997 19.3 21.1801 19.3 23.4997C19.3 25.8193 21.1804 27.6997 23.5 27.6997ZM23.5 30.2197C27.2114 30.2197 30.22 27.211 30.22 23.4997C30.22 19.7883 27.2114 16.7797 23.5 16.7797C19.7887 16.7797 16.78 19.7883 16.78 23.4997C16.78 27.211 19.7887 30.2197 23.5 30.2197ZM30.22 18.0399C30.9159 18.0399 31.48 17.4758 31.48 16.7799C31.48 16.0841 30.9159 15.5199 30.22 15.5199C29.5241 15.5199 28.96 16.0841 28.96 16.7799C28.96 17.4758 29.5241 18.0399 30.22 18.0399Z" fill="white"/>
</svg>
