<svg width="45" height="45" viewBox="0 0 45 45" fill="none" xmlns="http://www.w3.org/2000/svg">
<circle cx="22.5" cy="22.5" r="21.8192" stroke="white" stroke-width="1.36154"/>
<mask id="mask0" mask-type="alpha" maskUnits="userSpaceOnUse" x="0" y="0" width="45" height="45">
<circle cx="22.5" cy="22.5" r="22.5" fill="#00639C"/>
</mask>
<g mask="url(#mask0)">
<path d="M9.30005 18.158C9.30005 15.751 11.2513 13.7998 13.6582 13.7998H49.6418C52.0488 13.7998 54 15.751 54 18.158V28.2564C54 30.6634 52.0488 32.6147 49.6418 32.6147H13.6582C11.2513 32.6147 9.30005 30.6634 9.30005 28.2565V18.158Z" stroke="white" stroke-width="2"/>
<path d="M15.0814 19.4941L17.075 23.8042L19.2249 18.8042L21.3906 23.8042L23.3607 19.4941H25.3309L21.3436 27.6105L19.2249 22.75L17.0828 27.6105L13.1034 19.4941H15.0814Z" fill="white"/>
<path d="M27.4808 19.4941L29.4744 23.8042L31.6244 18.8042L33.79 23.8042L35.7602 19.4941H37.7303L33.7431 27.6105L31.6244 22.75L29.4823 27.6105L25.5029 19.4941H27.4808Z" fill="white"/>
<path d="M39.8803 19.4941L41.8739 23.8042L44.0239 18.8042L46.1895 23.8042L48.1597 19.4941H50.1298L46.1426 27.6105L44.0239 22.75L41.8817 27.6105L37.9023 19.4941H39.8803Z" fill="white"/>
</g>
</svg>
